<svg id="visual" viewBox="0 0 900 600" width="900" height="600" xmlns="http://www.w3.org/2000/svg" xmlns:xlink="http://www.w3.org/1999/xlink" version="1.1"><rect x="0" y="0" width="900" height="600" fill="#1E1E1E"></rect><path d="M645 600L643 600L643 568L602 568L602 537L546 537L546 505L619 505L619 474L655 474L655 442L589 442L589 411L559 411L559 379L588 379L588 347L569 347L569 316L622 316L622 284L609 284L609 253L576 253L576 221L605 221L605 189L593 189L593 158L622 158L622 126L549 126L549 95L653 95L653 63L622 63L622 32L627 32L627 0L900 0L900 32L900 32L900 63L900 63L900 95L900 95L900 126L900 126L900 158L900 158L900 189L900 189L900 221L900 221L900 253L900 253L900 284L900 284L900 316L900 316L900 347L900 347L900 379L900 379L900 411L900 411L900 442L900 442L900 474L900 474L900 505L900 505L900 537L900 537L900 568L900 568L900 600L900 600Z" fill="#1e1e1e"></path><path d="M665 600L632 600L632 568L623 568L623 537L598 537L598 505L697 505L697 474L642 474L642 442L634 442L634 411L611 411L611 379L686 379L686 347L607 347L607 316L606 316L606 284L616 284L616 253L659 253L659 221L622 221L622 189L658 189L658 158L654 158L654 126L641 126L641 95L707 95L707 63L650 63L650 32L644 32L644 0L900 0L900 32L900 32L900 63L900 63L900 95L900 95L900 126L900 126L900 158L900 158L900 189L900 189L900 221L900 221L900 253L900 253L900 284L900 284L900 316L900 316L900 347L900 347L900 379L900 379L900 411L900 411L900 442L900 442L900 474L900 474L900 505L900 505L900 537L900 537L900 568L900 568L900 600L900 600Z" fill="#3a2526"></path><path d="M727 600L672 600L672 568L677 568L677 537L714 537L714 505L651 505L651 474L697 474L697 442L658 442L658 411L696 411L696 379L682 379L682 347L729 347L729 316L731 316L731 284L693 284L693 253L735 253L735 221L689 221L689 189L645 189L645 158L741 158L741 126L701 126L701 95L697 95L697 63L747 63L747 32L716 32L716 0L900 0L900 32L900 32L900 63L900 63L900 95L900 95L900 126L900 126L900 158L900 158L900 189L900 189L900 221L900 221L900 253L900 253L900 284L900 284L900 316L900 316L900 347L900 347L900 379L900 379L900 411L900 411L900 442L900 442L900 474L900 474L900 505L900 505L900 537L900 537L900 568L900 568L900 600L900 600Z" fill="#572b2e"></path><path d="M756 600L740 600L740 568L702 568L702 537L788 537L788 505L701 505L701 474L773 474L773 442L777 442L777 411L745 411L745 379L701 379L701 347L752 347L752 316L776 316L776 284L752 284L752 253L785 253L785 221L731 221L731 189L773 189L773 158L758 158L758 126L773 126L773 95L739 95L739 63L751 63L751 32L783 32L783 0L900 0L900 32L900 32L900 63L900 63L900 95L900 95L900 126L900 126L900 158L900 158L900 189L900 189L900 221L900 221L900 253L900 253L900 284L900 284L900 316L900 316L900 347L900 347L900 379L900 379L900 411L900 411L900 442L900 442L900 474L900 474L900 505L900 505L900 537L900 537L900 568L900 568L900 600L900 600Z" fill="#743036"></path><path d="M818 600L749 600L749 568L751 568L751 537L803 537L803 505L802 505L802 474L797 474L797 442L787 442L787 411L765 411L765 379L817 379L817 347L810 347L810 316L759 316L759 284L797 284L797 253L809 253L809 221L792 221L792 189L773 189L773 158L791 158L791 126L805 126L805 95L774 95L774 63L798 63L798 32L773 32L773 0L900 0L900 32L900 32L900 63L900 63L900 95L900 95L900 126L900 126L900 158L900 158L900 189L900 189L900 221L900 221L900 253L900 253L900 284L900 284L900 316L900 316L900 347L900 347L900 379L900 379L900 411L900 411L900 442L900 442L900 474L900 474L900 505L900 505L900 537L900 537L900 568L900 568L900 600L900 600Z" fill="#91343f"></path><path d="M863 600L815 600L815 568L847 568L847 537L805 537L805 505L826 505L826 474L862 474L862 442L827 442L827 411L823 411L823 379L824 379L824 347L827 347L827 316L853 316L853 284L811 284L811 253L865 253L865 221L818 221L818 189L852 189L852 158L826 158L826 126L857 126L857 95L824 95L824 63L861 63L861 32L835 32L835 0L900 0L900 32L900 32L900 63L900 63L900 95L900 95L900 126L900 126L900 158L900 158L900 189L900 189L900 221L900 221L900 253L900 253L900 284L900 284L900 316L900 316L900 347L900 347L900 379L900 379L900 411L900 411L900 442L900 442L900 474L900 474L900 505L900 505L900 537L900 537L900 568L900 568L900 600L900 600Z" fill="#b03648"></path></svg>